#VRML V2.0 utf8

Shape {
  appearance Appearance {
    material Material {
      diffuseColor 0.5647 0.5647 0.5647
      specularColor 0.2824 0.2824 0.2824
      ambientIntensity 0.2
      transparency 0.0000
      shininess 0.5
    }
  }
  geometry IndexedFaceSet {
    ccw TRUE
    solid FALSE
    coord DEF co Coordinate {
      point [
        0.168531 -0.017905 -0.590551,
        0.187914 -0.020082 -0.590551,
        0.125959 -0.165696 -0.590551,
        0.122431 -0.163743 -0.590551,
        0.122431 -0.185348 -0.590551,
        0.103226 -0.196751 -0.590551,
        0.748031 0.669291 -0.590551,
        0.103226 1.338583 -0.590551,
        1.377953 0.669291 -0.590551,
        1.181102 1.338583 -0.590551,
        1.377953 1.141732 -0.590551,
        1.371245 1.192681 -0.590551,
        1.232051 1.331875 -0.590551,
        1.279528 1.312210 -0.590551,
        1.351580 1.240157 -0.590551,
        1.320296 1.280926 -0.590551,
        0.219934 -0.188869 -0.590551,
        0.285673 -0.195550 -0.590551,
        0.200854 -0.195436 -0.590551,
        0.188172 -0.196751 -0.590551,
        0.202648 -0.025399 -0.590551,
        0.216273 -0.034514 -0.590551,
        0.228160 -0.047638 -0.590551,
        0.242462 -0.099226 -0.590551,
        0.240469 -0.120536 -0.590551,
        0.235121 -0.137468 -0.590551,
        0.191317 -0.174286 -0.590551,
        0.172957 -0.176346 -0.590551,
        0.205661 -0.169006 -0.590551,
        0.217742 -0.160863 -0.590551,
        0.226980 -0.151118 -0.590551,
        0.146827 -0.173445 -0.590551,
        0.144604 -0.021013 -0.590551,
        0.122431 -0.030508 -0.590551,
        0.122431 -0.004102 -0.590551,
        0.236276 -0.062837 -0.590551,
        0.241523 -0.083910 -0.590551,
        0.258480 -0.050548 -0.590551,
        0.246942 -0.032144 -0.590551,
        0.360092 0.001300 -0.590551,
        0.386499 0.001300 -0.590551,
        0.386499 -0.195550 -0.590551,
        0.748031 -0.196751 -0.590551,
        0.235768 -0.178757 -0.590551,
        0.250554 -0.163191 -0.590551,
        0.285673 -0.173945 -0.590551,
        0.261041 -0.144473 -0.590551,
        0.360092 -0.173945 -0.590551,
        0.229170 -0.015052 -0.590551,
        0.210472 -0.004289 -0.590551,
        0.188527 0.002086 -0.590551,
        0.266965 -0.123637 -0.590551,
        0.268869 -0.100839 -0.590551,
        0.266037 -0.072853 -0.590551,
        0.168756 0.003700 -0.590551,
        0.145191 0.002074 -0.590551,
        0.748031 -0.669291 -0.590551,
        1.377953 -0.669291 -0.590551,
        0.103226 -1.338583 -0.590551,
        1.377953 -1.141732 -0.590551,
        0.143415 -0.193963 -0.590551,
        0.163306 -0.196751 -0.590551,
        0.171213 -0.197859 -0.590551,
        0.176595 -0.197951 -0.590551,
        1.279528 -1.312210 -0.590551,
        1.232051 -1.331875 -0.590551,
        1.181102 -1.338583 -0.590551,
        1.371245 -1.192681 -0.590551,
        1.351580 -1.240157 -0.590551,
        1.320296 -1.280926 -0.590551,
        -0.021606 -0.195550 -0.590551,
        0.084022 -0.195550 -0.590551,
        0.084022 0.001300 -0.590551,
        -1.181102 1.338583 -0.590551,
        -0.016804 0.001300 -0.590551,
        -1.232051 1.331875 -0.590551,
        -0.016804 -0.020306 -0.590551,
        0.057615 -0.020306 -0.590551,
        0.057615 -0.085122 -0.590551,
        -0.232859 -0.195550 -0.590551,
        -0.208626 -0.141598 -0.590551,
        -0.197337 -0.159205 -0.590551,
        -0.410505 -0.195550 -0.590551,
        -0.748031 -0.196751 -0.590551,
        -0.333685 0.001300 -0.590551,
        -0.748031 0.669291 -0.590551,
        -0.307279 0.001300 -0.590551,
        -0.060015 0.001300 -0.590551,
        -0.012003 -0.085122 -0.590551,
        -0.012003 -0.106728 -0.590551,
        -1.377953 0.669291 -0.590551,
        -1.377953 1.141732 -0.590551,
        -1.371245 1.192681 -0.590551,
        -0.181135 -0.174719 -0.590551,
        -0.160581 -0.186664 -0.590551,
        -0.137898 -0.193424 -0.590551,
        -1.351580 1.240157 -0.590551,
        -1.320296 1.280926 -0.590551,
        -1.279528 1.312210 -0.590551,
        0.057615 -0.106728 -0.590551,
        0.057615 -0.173945 -0.590551,
        -0.021606 -0.173945 -0.590551,
        -0.060015 -0.195550 -0.590551,
        -0.113542 -0.195550 -0.590551,
        -0.115567 0.001300 -0.590551,
        -0.144007 -0.001740 -0.590551,
        -0.202590 -0.039803 -0.590551,
        -0.211738 -0.056732 -0.590551,
        -0.217025 -0.076127 -0.590551,
        -0.218456 -0.094650 -0.590551,
        -0.215694 -0.120994 -0.590551,
        -0.167038 -0.009828 -0.590551,
        -0.188464 -0.024186 -0.590551,
        -0.188670 -0.024367 -0.590551,
        -0.361780 -0.140337 -0.590551,
        -0.280459 -0.140337 -0.590551,
        -0.381698 -0.195550 -0.590551,
        -0.261667 -0.195550 -0.590551,
        -0.748031 -0.669291 -0.590551,
        -1.377953 -0.669291 -0.590551,
        -1.181102 -1.338583 -0.590551,
        -1.377953 -1.141732 -0.590551,
        -1.371245 -1.192681 -0.590551,
        -1.232051 -1.331875 -0.590551,
        -1.279528 -1.312210 -0.590551,
        -1.320296 -1.280926 -0.590551,
        -1.351580 -1.240157 -0.590551,
        0.844547 -0.142428 0.590551,
        0.818972 -0.193476 0.590551,
        1.377953 -1.141732 0.590551,
        -0.511331 0.167766 0.590551,
        -0.374496 -0.327361 0.590551,
        -0.374496 0.263191 0.590551,
        0.859679 -0.084272 0.590551,
        0.230459 -0.327361 0.590551,
        0.158441 -0.327361 0.590551,
        -1.181102 -1.338583 0.590551,
        1.181102 -1.338583 0.590551,
        0.701605 -0.295767 0.590551,
        0.643007 -0.316619 0.590551,
        0.784739 0.177077 0.590551,
        0.820808 0.133769 0.590551,
        1.377953 1.141732 0.590551,
        -0.587173 -0.031238 0.590551,
        -0.540340 -0.065832 0.590551,
        -0.515123 -0.094465 0.590551,
        -0.498770 -0.125263 0.590551,
        -0.490957 -0.155960 0.590551,
        -0.489725 -0.175109 0.590551,
        -0.826210 0.032141 0.590551,
        -0.841308 0.061831 0.590551,
        -0.849818 -0.217533 0.590551,
        -0.804505 0.007181 0.590551,
        -0.849056 0.096456 0.590551,
        -0.849818 0.111952 0.590551,
        -1.377953 1.141732 0.590551,
        -0.844526 0.152762 0.590551,
        -0.832985 0.181024 0.590551,
        1.181102 1.338583 0.590551,
        -1.181102 1.338583 0.590551,
        -1.232051 1.331875 0.590551,
        1.232051 -1.331875 0.590551,
        1.279528 -1.312210 0.590551,
        1.320296 -1.280926 0.590551,
        -0.302478 0.183970 0.590551,
        -0.304728 0.183970 0.590551,
        -0.295006 0.151953 0.590551,
        -0.302896 0.123670 0.590551,
        -0.285148 0.120617 0.590551,
        -0.093624 -0.327361 0.590551,
        0.160161 0.125453 0.590551,
        0.164180 0.183970 0.590551,
        0.162267 0.183970 0.590551,
        0.847405 0.080193 0.590551,
        0.860972 0.024170 0.590551,
        0.864221 -0.024658 0.590551,
        -1.279528 1.312210 0.590551,
        -1.320296 1.280926 0.590551,
        -1.351580 1.240157 0.590551,
        0.136835 0.263191 0.590551,
        -0.273670 0.263191 0.590551,
        -0.041861 -0.138425 0.590551,
        -0.098913 -0.140000 0.590551,
        -0.056158 -0.175169 0.590551,
        -0.084455 -0.175602 0.590551,
        -0.069880 -0.212131 0.590551,
        -0.072581 -0.212131 0.590551,
        1.232051 1.331875 0.590551,
        0.230459 0.263191 0.590551,
        0.154661 0.153630 0.590551,
        0.144712 0.123993 0.590551,
        0.158441 0.066828 0.590551,
        -0.050413 -0.327361 0.590551,
        1.279528 1.312210 0.590551,
        0.680067 0.242548 0.590551,
        1.320296 1.280926 0.590551,
        0.734013 0.216403 0.590551,
        1.351580 1.240157 0.590551,
        1.371245 1.192681 0.590551,
        -0.645128 -0.000127 0.590551,
        -0.555980 0.190949 0.590551,
        -0.700019 0.028960 0.590551,
        -0.606463 0.203015 0.590551,
        -0.647266 0.205576 0.590551,
        -0.494374 -0.216602 0.590551,
        -0.505299 -0.246470 0.590551,
        -0.524369 -0.274175 0.590551,
        0.388900 0.263191 0.590551,
        0.555555 0.263191 0.590551,
        0.618067 0.258524 0.590551,
        0.781154 -0.239917 0.590551,
        0.755463 -0.262393 0.590551,
        1.371245 -1.192681 0.590551,
        1.351580 -1.240157 0.590551,
        0.578147 -0.326463 0.590551,
        0.549478 -0.327361 0.590551,
        0.388900 -0.327361 0.590551,
        -0.804637 -0.244957 0.590551,
        -0.705443 -0.055604 0.590551,
        -0.761894 -0.024335 0.590551,
        -0.640964 0.270393 0.590551,
        -0.575403 0.267590 0.590551,
        -0.523262 0.258288 0.590551,
        -0.511331 0.254188 0.590551,
        -0.549056 -0.295744 0.590551,
        -0.582629 -0.314104 0.590551,
        -0.635661 -0.329372 0.590551,
        -0.814423 0.206664 0.590551,
        -0.789064 0.228668 0.590551,
        -1.371245 1.192681 0.590551,
        -0.755856 0.247748 0.590551,
        -0.706248 0.264026 0.590551,
        -0.302478 -0.327361 0.590551,
        -0.302478 0.063339 0.590551,
        -0.761789 0.080898 0.590551,
        -0.768004 0.097182 0.590551,
        -0.770597 0.119716 0.590551,
        -0.751802 0.066250 0.590551,
        -0.733693 0.050369 0.590551,
        -0.692390 -0.269746 0.590551,
        -0.616957 -0.103445 0.590551,
        -0.744156 -0.264117 0.590551,
        -0.625181 -0.098200 0.590551,
        -0.700976 -0.057830 0.590551,
        -0.754915 0.166201 0.590551,
        -0.763524 0.152803 0.590551,
        -0.768745 0.137611 0.590551,
        -0.701167 -0.334563 0.590551,
        -0.777172 -0.326731 0.590551,
        -0.824406 -0.315227 0.590551,
        -1.351580 -1.240157 0.590551,
        -1.320296 -1.280926 0.590551,
        -0.688608 0.201828 0.590551,
        -0.719960 0.191801 0.590551,
        -0.741458 0.179133 0.590551,
        -0.849818 -0.303955 0.590551,
        -1.377953 -1.141732 0.590551,
        -1.371245 -1.192681 0.590551,
        -1.279528 -1.312210 0.590551,
        -1.232051 -1.331875 0.590551,
        -0.650211 -0.266561 0.590551,
        -0.619961 -0.258509 0.590551,
        -0.592650 -0.124071 0.590551,
        -0.578204 -0.143878 0.590551,
        -0.578242 -0.223348 0.590551,
        -0.571441 -0.204921 0.590551,
        -0.587620 -0.236853 0.590551,
        -0.568946 -0.181636 0.590551,
        -0.600513 -0.248211 0.590551,
        -0.571514 -0.160680 0.590551,
        -1.377953 -0.590551 -0.511811,
        -1.377953 0.590551 -0.511811,
        -1.377953 0.590551 -0.039370,
        -1.377953 -0.590551 -0.039370,
        -1.377953 -0.590551 0.039370,
        -1.377953 0.590551 0.039370,
        1.377953 0.590551 -0.511811,
        1.377953 -0.590551 -0.511811,
        1.377953 -0.590551 -0.039370,
        1.377953 0.590551 -0.039370,
        1.377953 0.590551 0.039370,
        1.377953 -0.590551 0.039370,
        0.826772 -0.590551 -0.511811,
        0.826772 0.590551 -0.511811,
        -0.826772 -0.590551 -0.511811,
        -0.826772 0.590551 -0.511811,
      ]
    }
    coordIndex [
      0, 1, 2, -1,
      3, 4, 5, -1,
      6, 7, 8, -1,
      8, 7, 9, -1,
      8, 9, 10, -1,
      10, 9, 11, -1,
      9, 12, 11, -1,
      11, 12, 13, -1,
      11, 13, 14, -1,
      14, 13, 15, -1,
      16, 17, 18, -1,
      18, 17, 19, -1,
      1, 20, 2, -1,
      2, 20, 21, -1,
      2, 21, 22, -1,
      23, 24, 2, -1,
      2, 24, 25, -1,
      26, 27, 28, -1,
      28, 27, 29, -1,
      25, 30, 2, -1,
      2, 30, 29, -1,
      2, 29, 31, -1,
      31, 29, 27, -1,
      0, 2, 32, -1,
      32, 2, 3, -1,
      32, 3, 33, -1,
      33, 3, 7, -1,
      33, 7, 34, -1,
      22, 35, 2, -1,
      2, 35, 36, -1,
      2, 36, 23, -1,
      37, 38, 39, -1,
      39, 38, 7, -1,
      39, 7, 40, -1,
      40, 7, 6, -1,
      40, 6, 41, -1,
      41, 6, 42, -1,
      16, 43, 17, -1,
      17, 43, 44, -1,
      17, 44, 45, -1,
      45, 44, 46, -1,
      45, 46, 47, -1,
      38, 48, 7, -1,
      7, 48, 49, -1,
      7, 49, 50, -1,
      46, 51, 47, -1,
      47, 51, 52, -1,
      47, 52, 39, -1,
      39, 52, 53, -1,
      39, 53, 37, -1,
      50, 54, 7, -1,
      7, 54, 55, -1,
      7, 55, 34, -1,
      56, 57, 58, -1,
      58, 57, 59, -1,
      4, 60, 5, -1,
      5, 60, 61, -1,
      5, 61, 58, -1,
      58, 61, 62, -1,
      58, 62, 56, -1,
      56, 62, 63, -1,
      56, 63, 42, -1,
      42, 63, 19, -1,
      42, 19, 41, -1,
      41, 19, 17, -1,
      64, 65, 59, -1,
      59, 65, 66, -1,
      59, 66, 58, -1,
      67, 68, 59, -1,
      59, 68, 69, -1,
      59, 69, 64, -1,
      70, 71, 5, -1,
      5, 71, 72, -1,
      3, 5, 7, -1,
      7, 5, 72, -1,
      7, 72, 73, -1,
      73, 72, 74, -1,
      73, 74, 75, -1,
      76, 77, 78, -1,
      79, 80, 81, -1,
      82, 83, 84, -1,
      84, 83, 85, -1,
      84, 85, 86, -1,
      87, 88, 89, -1,
      90, 91, 85, -1,
      85, 91, 92, -1,
      81, 93, 79, -1,
      79, 93, 94, -1,
      79, 94, 95, -1,
      78, 88, 76, -1,
      76, 88, 87, -1,
      76, 87, 74, -1,
      92, 96, 85, -1,
      85, 96, 97, -1,
      85, 97, 74, -1,
      74, 97, 98, -1,
      74, 98, 75, -1,
      99, 100, 89, -1,
      89, 100, 101, -1,
      89, 101, 87, -1,
      87, 101, 70, -1,
      87, 70, 102, -1,
      102, 70, 5, -1,
      102, 5, 103, -1,
      74, 87, 85, -1,
      85, 87, 104, -1,
      85, 104, 105, -1,
      86, 106, 107, -1,
      107, 108, 86, -1,
      86, 108, 109, -1,
      86, 109, 79, -1,
      79, 109, 110, -1,
      79, 110, 80, -1,
      105, 111, 85, -1,
      85, 111, 112, -1,
      85, 112, 86, -1,
      86, 112, 113, -1,
      86, 113, 106, -1,
      114, 115, 116, -1,
      116, 115, 117, -1,
      116, 117, 5, -1,
      5, 117, 79, -1,
      5, 79, 103, -1,
      103, 79, 95, -1,
      82, 116, 83, -1,
      83, 116, 5, -1,
      83, 5, 118, -1,
      118, 5, 58, -1,
      118, 58, 119, -1,
      119, 58, 120, -1,
      119, 120, 121, -1,
      121, 120, 122, -1,
      123, 124, 125, -1,
      123, 125, 120, -1,
      120, 125, 126, -1,
      120, 126, 122, -1,
      127, 128, 129, -1,
      130, 131, 132, -1,
      127, 129, 133, -1,
      134, 135, 136, -1,
      137, 138, 139, -1,
      140, 141, 142, -1,
      143, 144, 130, -1,
      144, 145, 130, -1,
      130, 145, 146, -1,
      130, 146, 131, -1,
      131, 146, 147, -1,
      131, 147, 148, -1,
      149, 150, 151, -1,
      149, 151, 152, -1,
      153, 154, 155, -1,
      155, 154, 156, -1,
      155, 156, 157, -1,
      158, 159, 132, -1,
      132, 159, 160, -1,
      137, 161, 138, -1,
      138, 161, 162, -1,
      138, 162, 163, -1,
      164, 165, 166, -1,
      166, 165, 167, -1,
      166, 167, 168, -1,
      168, 167, 169, -1,
      170, 171, 172, -1,
      141, 173, 142, -1,
      142, 173, 174, -1,
      142, 174, 129, -1,
      129, 174, 175, -1,
      129, 175, 133, -1,
      160, 176, 132, -1,
      132, 176, 177, -1,
      132, 177, 178, -1,
      179, 180, 181, -1,
      181, 180, 182, -1,
      181, 182, 183, -1,
      183, 182, 184, -1,
      183, 184, 185, -1,
      185, 184, 186, -1,
      132, 180, 158, -1,
      158, 180, 179, -1,
      158, 179, 187, -1,
      187, 179, 188, -1,
      172, 189, 170, -1,
      170, 189, 190, -1,
      170, 190, 191, -1,
      191, 190, 192, -1,
      193, 194, 195, -1,
      195, 194, 196, -1,
      195, 196, 197, -1,
      140, 142, 196, -1,
      196, 142, 198, -1,
      196, 198, 197, -1,
      143, 130, 199, -1,
      199, 130, 200, -1,
      199, 200, 201, -1,
      201, 200, 202, -1,
      201, 202, 203, -1,
      169, 136, 192, -1,
      192, 136, 135, -1,
      192, 135, 191, -1,
      148, 204, 131, -1,
      131, 204, 205, -1,
      131, 205, 206, -1,
      207, 208, 193, -1,
      193, 208, 209, -1,
      193, 209, 194, -1,
      128, 210, 129, -1,
      129, 210, 211, -1,
      129, 211, 212, -1,
      212, 211, 138, -1,
      212, 138, 213, -1,
      213, 138, 163, -1,
      139, 214, 137, -1,
      137, 214, 215, -1,
      137, 215, 136, -1,
      136, 215, 216, -1,
      136, 216, 134, -1,
      134, 216, 207, -1,
      134, 207, 188, -1,
      188, 207, 193, -1,
      188, 193, 187, -1,
      217, 218, 151, -1,
      151, 218, 219, -1,
      151, 219, 152, -1,
      220, 221, 178, -1,
      178, 221, 222, -1,
      178, 222, 132, -1,
      132, 222, 223, -1,
      132, 223, 130, -1,
      224, 225, 136, -1,
      136, 225, 226, -1,
      157, 227, 155, -1,
      155, 227, 228, -1,
      155, 228, 229, -1,
      229, 228, 230, -1,
      229, 230, 178, -1,
      178, 230, 231, -1,
      178, 231, 220, -1,
      206, 224, 131, -1,
      131, 224, 136, -1,
      131, 136, 232, -1,
      232, 136, 169, -1,
      232, 169, 233, -1,
      233, 169, 167, -1,
      234, 203, 235, -1,
      235, 203, 236, -1,
      234, 237, 203, -1,
      203, 237, 238, -1,
      203, 238, 201, -1,
      239, 240, 241, -1,
      241, 240, 242, -1,
      241, 242, 217, -1,
      217, 242, 243, -1,
      217, 243, 218, -1,
      244, 245, 246, -1,
      226, 247, 136, -1,
      136, 247, 248, -1,
      136, 248, 249, -1,
      250, 251, 249, -1,
      203, 252, 236, -1,
      236, 252, 253, -1,
      236, 253, 246, -1,
      246, 253, 254, -1,
      246, 254, 244, -1,
      150, 153, 151, -1,
      151, 153, 155, -1,
      151, 155, 255, -1,
      255, 155, 256, -1,
      255, 256, 249, -1,
      249, 256, 257, -1,
      249, 257, 250, -1,
      251, 258, 249, -1,
      249, 258, 259, -1,
      249, 259, 136, -1,
      239, 260, 240, -1,
      240, 260, 261, -1,
      240, 261, 262, -1,
      262, 261, 263, -1,
      264, 265, 266, -1,
      266, 265, 267, -1,
      266, 267, 268, -1,
      268, 267, 261, -1,
      261, 267, 269, -1,
      261, 269, 263, -1,
      136, 120, 137, -1,
      137, 120, 58, -1,
      137, 58, 66, -1,
      73, 159, 7, -1,
      7, 159, 158, -1,
      7, 158, 9, -1,
      270, 119, 121, -1,
      90, 271, 272, -1,
      272, 271, 273, -1,
      271, 270, 273, -1,
      273, 270, 121, -1,
      273, 121, 274, -1,
      274, 121, 256, -1,
      274, 256, 275, -1,
      275, 256, 155, -1,
      275, 155, 272, -1,
      272, 155, 91, -1,
      272, 91, 90, -1,
      276, 8, 10, -1,
      57, 277, 278, -1,
      278, 277, 279, -1,
      277, 276, 279, -1,
      279, 276, 10, -1,
      279, 10, 280, -1,
      280, 10, 142, -1,
      280, 142, 281, -1,
      281, 142, 129, -1,
      281, 129, 278, -1,
      278, 129, 59, -1,
      278, 59, 57, -1,
      137, 66, 65, -1,
      137, 65, 161, -1,
      161, 65, 64, -1,
      161, 64, 162, -1,
      162, 64, 69, -1,
      162, 69, 163, -1,
      163, 69, 68, -1,
      163, 68, 213, -1,
      213, 68, 67, -1,
      213, 67, 212, -1,
      212, 67, 59, -1,
      212, 59, 129, -1,
      142, 10, 11, -1,
      142, 11, 198, -1,
      198, 11, 14, -1,
      198, 14, 197, -1,
      197, 14, 15, -1,
      197, 15, 195, -1,
      195, 15, 13, -1,
      195, 13, 193, -1,
      193, 13, 12, -1,
      193, 12, 187, -1,
      187, 12, 9, -1,
      187, 9, 158, -1,
      256, 121, 122, -1,
      256, 122, 257, -1,
      257, 122, 126, -1,
      257, 126, 250, -1,
      250, 126, 125, -1,
      250, 125, 251, -1,
      251, 125, 124, -1,
      251, 124, 258, -1,
      258, 124, 123, -1,
      258, 123, 259, -1,
      259, 123, 120, -1,
      259, 120, 136, -1,
      159, 73, 75, -1,
      159, 75, 160, -1,
      160, 75, 98, -1,
      160, 98, 176, -1,
      176, 98, 97, -1,
      176, 97, 177, -1,
      177, 97, 96, -1,
      177, 96, 178, -1,
      178, 96, 92, -1,
      178, 92, 229, -1,
      229, 92, 91, -1,
      229, 91, 155, -1,
      282, 283, 277, -1,
      277, 283, 276, -1,
      270, 271, 284, -1,
      284, 271, 285, -1,
      85, 285, 90, -1,
      90, 285, 271, -1,
      118, 284, 83, -1,
      83, 284, 285, -1,
      83, 285, 85, -1,
      119, 270, 118, -1,
      118, 270, 284, -1,
      283, 6, 276, -1,
      276, 6, 8, -1,
      6, 283, 42, -1,
      42, 283, 282, -1,
      42, 282, 56, -1,
      56, 282, 57, -1,
      57, 282, 277, -1,
    ]
  }
}

Shape {
  appearance Appearance {
    material Material {
      diffuseColor 0.8510 0.8510 0.8510
      specularColor 0.4235 0.4235 0.4235
      ambientIntensity 0.2
      transparency 0.0000
      shininess 0.5
    }
  }
  geometry IndexedFaceSet {
    ccw TRUE
    solid FALSE
    coord DEF co Coordinate {
      point [
        -1.377953 0.590551 -0.039370,
        -1.377953 -0.590551 -0.039370,
        -1.377953 -0.590551 0.039370,
        -1.377953 0.590551 0.039370,
        1.377953 -0.590551 -0.039370,
        1.377953 0.590551 -0.039370,
        1.377953 0.590551 0.039370,
        1.377953 -0.590551 0.039370,
        0.826772 -0.590551 -0.531496,
        0.826772 0.590551 -0.531496,
        0.826772 -0.590551 -0.610236,
        0.826772 0.590551 -0.610236,
        1.378972 -0.590551 -0.039504,
        1.378972 0.590551 -0.039504,
        1.379921 -0.590551 -0.039898,
        1.379921 0.590551 -0.039898,
        1.380737 -0.590551 -0.040523,
        1.380737 0.590551 -0.040523,
        1.381362 -0.590551 -0.041339,
        1.381362 0.590551 -0.041339,
        1.381756 -0.590551 -0.042288,
        1.381756 0.590551 -0.042288,
        1.381890 -0.590551 -0.043307,
        1.381890 0.590551 -0.043307,
        1.399351 0.590551 0.036553,
        1.419291 0.590551 0.028293,
        1.436415 0.590551 0.015154,
        1.449553 0.590551 -0.001969,
        1.457813 0.590551 -0.021909,
        1.460630 0.590551 -0.043307,
        1.460630 -0.590551 -0.043307,
        1.457813 -0.590551 -0.021909,
        1.449553 -0.590551 -0.001969,
        1.436415 -0.590551 0.015154,
        1.419291 -0.590551 0.028293,
        1.399351 -0.590551 0.036553,
        1.381890 -0.590551 -0.527559,
        1.381890 0.590551 -0.527559,
        1.460630 0.590551 -0.527559,
        1.460630 -0.590551 -0.527559,
        1.381756 -0.590551 -0.528578,
        1.381756 0.590551 -0.528578,
        1.381362 -0.590551 -0.529528,
        1.381362 0.590551 -0.529528,
        1.380737 -0.590551 -0.530343,
        1.380737 0.590551 -0.530343,
        1.379921 -0.590551 -0.530969,
        1.379921 0.590551 -0.530969,
        1.378972 -0.590551 -0.531362,
        1.378972 0.590551 -0.531362,
        1.377953 -0.590551 -0.531496,
        1.377953 0.590551 -0.531496,
        1.457813 0.590551 -0.548957,
        1.449553 0.590551 -0.568898,
        1.436415 0.590551 -0.586020,
        1.419291 0.590551 -0.599159,
        1.399351 0.590551 -0.607419,
        1.377953 0.590551 -0.610236,
        1.377953 -0.590551 -0.610236,
        1.399351 -0.590551 -0.607419,
        1.419291 -0.590551 -0.599159,
        1.436415 -0.590551 -0.586020,
        1.449553 -0.590551 -0.568898,
        1.457813 -0.590551 -0.548957,
        -0.826772 0.590551 -0.531496,
        -0.826772 -0.590551 -0.531496,
        -0.826772 0.590551 -0.610236,
        -0.826772 -0.590551 -0.610236,
        -1.460630 0.590551 -0.043307,
        -1.460630 -0.590551 -0.043307,
        -1.457813 -0.590551 -0.021909,
        -1.457813 0.590551 -0.021909,
        -1.449553 -0.590551 -0.001969,
        -1.449553 0.590551 -0.001969,
        -1.436415 -0.590551 0.015154,
        -1.436415 0.590551 0.015154,
        -1.419291 -0.590551 0.028293,
        -1.419291 0.590551 0.028293,
        -1.399351 -0.590551 0.036553,
        -1.399351 0.590551 0.036553,
        -1.381890 0.590551 -0.043307,
        -1.381756 0.590551 -0.042288,
        -1.381362 0.590551 -0.041339,
        -1.380737 0.590551 -0.040523,
        -1.379921 0.590551 -0.039898,
        -1.378972 0.590551 -0.039504,
        -1.378972 -0.590551 -0.039504,
        -1.379921 -0.590551 -0.039898,
        -1.380737 -0.590551 -0.040523,
        -1.381362 -0.590551 -0.041339,
        -1.381756 -0.590551 -0.042288,
        -1.381890 -0.590551 -0.043307,
        -1.460630 -0.590551 -0.527559,
        -1.460630 0.590551 -0.527559,
        -1.381890 0.590551 -0.527559,
        -1.381890 -0.590551 -0.527559,
        -1.377953 0.590551 -0.610236,
        -1.377953 -0.590551 -0.610236,
        -1.399351 -0.590551 -0.607419,
        -1.399351 0.590551 -0.607419,
        -1.419291 -0.590551 -0.599159,
        -1.419291 0.590551 -0.599159,
        -1.436415 -0.590551 -0.586020,
        -1.436415 0.590551 -0.586020,
        -1.449553 -0.590551 -0.568898,
        -1.449553 0.590551 -0.568898,
        -1.457813 -0.590551 -0.548957,
        -1.457813 0.590551 -0.548957,
        -1.377953 0.590551 -0.531496,
        -1.378972 0.590551 -0.531362,
        -1.379921 0.590551 -0.530969,
        -1.380737 0.590551 -0.530343,
        -1.381362 0.590551 -0.529528,
        -1.381756 0.590551 -0.528578,
        -1.381756 -0.590551 -0.528578,
        -1.381362 -0.590551 -0.529528,
        -1.380737 -0.590551 -0.530343,
        -1.379921 -0.590551 -0.530969,
        -1.378972 -0.590551 -0.531362,
        -1.377953 -0.590551 -0.531496,
      ]
    }
    coordIndex [
      8, 9, 10, -1,
      10, 9, 11, -1,
      4, 5, 12, -1,
      12, 5, 13, -1,
      12, 13, 14, -1,
      14, 13, 15, -1,
      14, 15, 16, -1,
      16, 15, 17, -1,
      16, 17, 18, -1,
      18, 17, 19, -1,
      18, 19, 20, -1,
      20, 19, 21, -1,
      20, 21, 22, -1,
      22, 21, 23, -1,
      5, 6, 13, -1,
      13, 6, 24, -1,
      13, 24, 15, -1,
      15, 24, 25, -1,
      15, 25, 17, -1,
      17, 25, 26, -1,
      17, 26, 19, -1,
      19, 26, 27, -1,
      19, 27, 21, -1,
      21, 27, 28, -1,
      21, 28, 23, -1,
      23, 28, 29, -1,
      30, 29, 28, -1,
      30, 28, 31, -1,
      31, 28, 27, -1,
      31, 27, 32, -1,
      32, 27, 26, -1,
      32, 26, 33, -1,
      33, 26, 25, -1,
      33, 25, 34, -1,
      34, 25, 24, -1,
      34, 24, 35, -1,
      35, 24, 6, -1,
      35, 6, 7, -1,
      22, 30, 20, -1,
      20, 30, 31, -1,
      20, 31, 18, -1,
      18, 31, 32, -1,
      18, 32, 16, -1,
      16, 32, 33, -1,
      16, 33, 14, -1,
      14, 33, 34, -1,
      14, 34, 12, -1,
      12, 34, 35, -1,
      12, 35, 4, -1,
      4, 35, 7, -1,
      36, 22, 37, -1,
      37, 22, 23, -1,
      37, 23, 38, -1,
      38, 23, 29, -1,
      38, 29, 39, -1,
      39, 29, 30, -1,
      30, 22, 39, -1,
      39, 22, 36, -1,
      36, 37, 40, -1,
      40, 37, 41, -1,
      40, 41, 42, -1,
      42, 41, 43, -1,
      42, 43, 44, -1,
      44, 43, 45, -1,
      44, 45, 46, -1,
      46, 45, 47, -1,
      46, 47, 48, -1,
      48, 47, 49, -1,
      48, 49, 50, -1,
      50, 49, 51, -1,
      37, 38, 41, -1,
      41, 38, 52, -1,
      41, 52, 43, -1,
      43, 52, 53, -1,
      43, 53, 45, -1,
      45, 53, 54, -1,
      45, 54, 47, -1,
      47, 54, 55, -1,
      47, 55, 49, -1,
      49, 55, 56, -1,
      49, 56, 51, -1,
      51, 56, 57, -1,
      58, 57, 56, -1,
      58, 56, 59, -1,
      59, 56, 55, -1,
      59, 55, 60, -1,
      60, 55, 54, -1,
      60, 54, 61, -1,
      61, 54, 53, -1,
      61, 53, 62, -1,
      62, 53, 52, -1,
      62, 52, 63, -1,
      63, 52, 38, -1,
      63, 38, 39, -1,
      50, 58, 48, -1,
      48, 58, 59, -1,
      48, 59, 46, -1,
      46, 59, 60, -1,
      46, 60, 44, -1,
      44, 60, 61, -1,
      44, 61, 42, -1,
      42, 61, 62, -1,
      42, 62, 40, -1,
      40, 62, 63, -1,
      40, 63, 36, -1,
      36, 63, 39, -1,
      8, 50, 9, -1,
      9, 50, 51, -1,
      9, 51, 11, -1,
      11, 51, 57, -1,
      11, 57, 10, -1,
      10, 57, 58, -1,
      58, 50, 10, -1,
      10, 50, 8, -1,
      64, 65, 66, -1,
      66, 65, 67, -1,
      68, 69, 70, -1,
      68, 70, 71, -1,
      71, 70, 72, -1,
      71, 72, 73, -1,
      73, 72, 74, -1,
      73, 74, 75, -1,
      75, 74, 76, -1,
      75, 76, 77, -1,
      77, 76, 78, -1,
      77, 78, 79, -1,
      79, 78, 2, -1,
      79, 2, 3, -1,
      80, 68, 81, -1,
      81, 68, 71, -1,
      81, 71, 82, -1,
      82, 71, 73, -1,
      82, 73, 83, -1,
      83, 73, 75, -1,
      83, 75, 84, -1,
      84, 75, 77, -1,
      84, 77, 85, -1,
      85, 77, 79, -1,
      85, 79, 0, -1,
      0, 79, 3, -1,
      0, 1, 85, -1,
      85, 1, 86, -1,
      85, 86, 84, -1,
      84, 86, 87, -1,
      84, 87, 83, -1,
      83, 87, 88, -1,
      83, 88, 82, -1,
      82, 88, 89, -1,
      82, 89, 81, -1,
      81, 89, 90, -1,
      81, 90, 80, -1,
      80, 90, 91, -1,
      1, 2, 86, -1,
      86, 2, 78, -1,
      86, 78, 87, -1,
      87, 78, 76, -1,
      87, 76, 88, -1,
      88, 76, 74, -1,
      88, 74, 89, -1,
      89, 74, 72, -1,
      89, 72, 90, -1,
      90, 72, 70, -1,
      90, 70, 91, -1,
      91, 70, 69, -1,
      92, 69, 93, -1,
      93, 69, 68, -1,
      93, 68, 94, -1,
      94, 68, 80, -1,
      94, 80, 95, -1,
      95, 80, 91, -1,
      91, 69, 95, -1,
      95, 69, 92, -1,
      96, 97, 98, -1,
      96, 98, 99, -1,
      99, 98, 100, -1,
      99, 100, 101, -1,
      101, 100, 102, -1,
      101, 102, 103, -1,
      103, 102, 104, -1,
      103, 104, 105, -1,
      105, 104, 106, -1,
      105, 106, 107, -1,
      107, 106, 92, -1,
      107, 92, 93, -1,
      108, 96, 109, -1,
      109, 96, 99, -1,
      109, 99, 110, -1,
      110, 99, 101, -1,
      110, 101, 111, -1,
      111, 101, 103, -1,
      111, 103, 112, -1,
      112, 103, 105, -1,
      112, 105, 113, -1,
      113, 105, 107, -1,
      113, 107, 94, -1,
      94, 107, 93, -1,
      94, 95, 113, -1,
      113, 95, 114, -1,
      113, 114, 112, -1,
      112, 114, 115, -1,
      112, 115, 111, -1,
      111, 115, 116, -1,
      111, 116, 110, -1,
      110, 116, 117, -1,
      110, 117, 109, -1,
      109, 117, 118, -1,
      109, 118, 108, -1,
      108, 118, 119, -1,
      95, 92, 114, -1,
      114, 92, 106, -1,
      114, 106, 115, -1,
      115, 106, 104, -1,
      115, 104, 116, -1,
      116, 104, 102, -1,
      116, 102, 117, -1,
      117, 102, 100, -1,
      117, 100, 118, -1,
      118, 100, 98, -1,
      118, 98, 119, -1,
      119, 98, 97, -1,
      67, 97, 66, -1,
      66, 97, 96, -1,
      66, 96, 64, -1,
      64, 96, 108, -1,
      64, 108, 65, -1,
      65, 108, 119, -1,
      119, 97, 65, -1,
      65, 97, 67, -1,
    ]
  }
}

Shape {
  appearance Appearance {
    material Material {
      diffuseColor 0.2235 0.2235 0.2235
      specularColor 0.1137 0.1137 0.1137
      ambientIntensity 0.2
      transparency 0.0000
      shininess 0.5
    }
  }
  geometry IndexedFaceSet {
    ccw TRUE
    solid FALSE
    coord DEF co Coordinate {
      point [
        0.844547 -0.142428 0.590551,
        0.818972 -0.193476 0.590551,
        -0.511331 0.167766 0.590551,
        -0.374496 -0.327361 0.590551,
        -0.374496 0.263191 0.590551,
        0.859679 -0.084272 0.590551,
        0.230459 -0.327361 0.590551,
        0.158441 -0.327361 0.590551,
        0.701605 -0.295767 0.590551,
        0.643007 -0.316619 0.590551,
        0.784739 0.177077 0.590551,
        0.820808 0.133769 0.590551,
        -0.587173 -0.031238 0.590551,
        -0.540340 -0.065832 0.590551,
        -0.515123 -0.094465 0.590551,
        -0.498770 -0.125263 0.590551,
        -0.490957 -0.155960 0.590551,
        -0.489725 -0.175109 0.590551,
        -0.826210 0.032141 0.590551,
        -0.841308 0.061831 0.590551,
        -0.849818 -0.217533 0.590551,
        -0.804505 0.007181 0.590551,
        -0.849056 0.096456 0.590551,
        -0.849818 0.111952 0.590551,
        -0.844526 0.152762 0.590551,
        -0.832985 0.181024 0.590551,
        -0.302478 0.183970 0.590551,
        -0.304728 0.183970 0.590551,
        -0.295006 0.151953 0.590551,
        -0.302896 0.123670 0.590551,
        -0.285148 0.120617 0.590551,
        -0.093624 -0.327361 0.590551,
        0.160161 0.125453 0.590551,
        0.164180 0.183970 0.590551,
        0.162267 0.183970 0.590551,
        0.847405 0.080193 0.590551,
        0.860972 0.024170 0.590551,
        0.864221 -0.024658 0.590551,
        0.136835 0.263191 0.590551,
        -0.273670 0.263191 0.590551,
        -0.041861 -0.138425 0.590551,
        -0.098913 -0.140000 0.590551,
        -0.056158 -0.175169 0.590551,
        -0.084455 -0.175602 0.590551,
        -0.069880 -0.212131 0.590551,
        -0.072581 -0.212131 0.590551,
        0.230459 0.263191 0.590551,
        0.154661 0.153630 0.590551,
        0.144712 0.123993 0.590551,
        0.158441 0.066828 0.590551,
        -0.050413 -0.327361 0.590551,
        0.680067 0.242548 0.590551,
        0.734013 0.216403 0.590551,
        -0.645128 -0.000127 0.590551,
        -0.555980 0.190949 0.590551,
        -0.700019 0.028960 0.590551,
        -0.606463 0.203015 0.590551,
        -0.647266 0.205576 0.590551,
        -0.494374 -0.216602 0.590551,
        -0.505299 -0.246470 0.590551,
        -0.524369 -0.274175 0.590551,
        0.388900 0.263191 0.590551,
        0.555555 0.263191 0.590551,
        0.618067 0.258524 0.590551,
        0.781154 -0.239917 0.590551,
        0.755463 -0.262393 0.590551,
        0.578147 -0.326463 0.590551,
        0.549478 -0.327361 0.590551,
        0.388900 -0.327361 0.590551,
        -0.804637 -0.244957 0.590551,
        -0.705443 -0.055604 0.590551,
        -0.761894 -0.024335 0.590551,
        -0.640964 0.270393 0.590551,
        -0.575403 0.267590 0.590551,
        -0.523262 0.258288 0.590551,
        -0.511331 0.254188 0.590551,
        -0.549056 -0.295744 0.590551,
        -0.582629 -0.314104 0.590551,
        -0.635661 -0.329372 0.590551,
        -0.814423 0.206664 0.590551,
        -0.789064 0.228668 0.590551,
        -0.755856 0.247748 0.590551,
        -0.706248 0.264026 0.590551,
        -0.302478 -0.327361 0.590551,
        -0.302478 0.063339 0.590551,
        -0.761789 0.080898 0.590551,
        -0.768004 0.097182 0.590551,
        -0.770597 0.119716 0.590551,
        -0.751802 0.066250 0.590551,
        -0.733693 0.050369 0.590551,
        -0.692390 -0.269746 0.590551,
        -0.616957 -0.103445 0.590551,
        -0.744156 -0.264117 0.590551,
        -0.625181 -0.098200 0.590551,
        -0.700976 -0.057830 0.590551,
        -0.754915 0.166201 0.590551,
        -0.763524 0.152803 0.590551,
        -0.768745 0.137611 0.590551,
        -0.701167 -0.334563 0.590551,
        -0.777172 -0.326731 0.590551,
        -0.824406 -0.315227 0.590551,
        -0.688608 0.201828 0.590551,
        -0.719960 0.191801 0.590551,
        -0.741458 0.179133 0.590551,
        -0.849818 -0.303955 0.590551,
        -0.650211 -0.266561 0.590551,
        -0.619961 -0.258509 0.590551,
        -0.592650 -0.124071 0.590551,
        -0.578204 -0.143878 0.590551,
        -0.578242 -0.223348 0.590551,
        -0.571441 -0.204921 0.590551,
        -0.587620 -0.236853 0.590551,
        -0.568946 -0.181636 0.590551,
        -0.600513 -0.248211 0.590551,
        -0.571514 -0.160680 0.590551,
        0.549478 -0.327361 0.586614,
        0.388900 -0.327361 0.586614,
        0.388900 0.263191 0.586614,
        0.555555 0.263191 0.586614,
        0.864221 -0.024658 0.586614,
        0.860972 0.024170 0.586614,
        0.847405 0.080193 0.586614,
        0.820808 0.133769 0.586614,
        0.784739 0.177077 0.586614,
        0.734013 0.216403 0.586614,
        0.680067 0.242548 0.586614,
        0.618067 0.258524 0.586614,
        0.578147 -0.326463 0.586614,
        0.643007 -0.316619 0.586614,
        0.701605 -0.295767 0.586614,
        0.755463 -0.262393 0.586614,
        0.781154 -0.239917 0.586614,
        0.818972 -0.193476 0.586614,
        0.844547 -0.142428 0.586614,
        0.859679 -0.084272 0.586614,
        0.551954 -0.262544 0.586614,
        0.603773 -0.258615 0.586614,
        0.654477 -0.245224 0.586614,
        0.696655 -0.222861 0.586614,
        0.731459 -0.191674 0.586614,
        0.757983 -0.152693 0.586614,
        0.775209 -0.107588 0.586614,
        0.784016 -0.053163 0.586614,
        0.785001 -0.026346 0.586614,
        0.781505 0.023374 0.586614,
        0.768563 0.073278 0.586614,
        0.748767 0.111202 0.586614,
        0.723763 0.140076 0.586614,
        0.682578 0.169426 0.586614,
        0.635670 0.188250 0.586614,
        0.581216 0.197420 0.586614,
        0.555217 0.198374 0.586614,
        0.468120 0.198374 0.586614,
        0.468120 -0.262544 0.586614,
        0.555217 0.198374 0.590551,
        0.468120 0.198374 0.590551,
        0.581216 0.197420 0.590551,
        0.635670 0.188250 0.590551,
        0.682578 0.169426 0.590551,
        0.723763 0.140076 0.590551,
        0.748767 0.111202 0.590551,
        0.768563 0.073278 0.590551,
        0.781505 0.023374 0.590551,
        0.785001 -0.026346 0.590551,
        0.784016 -0.053163 0.590551,
        0.775209 -0.107588 0.590551,
        0.757983 -0.152693 0.590551,
        0.731459 -0.191674 0.590551,
        0.696655 -0.222861 0.590551,
        0.654477 -0.245224 0.590551,
        0.603773 -0.258615 0.590551,
        0.551954 -0.262544 0.590551,
        0.468120 -0.262544 0.590551,
        0.230459 -0.327361 0.586614,
        0.158441 -0.327361 0.586614,
        0.158441 0.066828 0.586614,
        0.164180 0.183970 0.586614,
        0.160161 0.125453 0.586614,
        0.162267 0.183970 0.586614,
        0.144712 0.123993 0.586614,
        0.154661 0.153630 0.586614,
        -0.050413 -0.327361 0.586614,
        -0.093624 -0.327361 0.586614,
        -0.285148 0.120617 0.586614,
        -0.302478 0.183970 0.586614,
        -0.295006 0.151953 0.586614,
        -0.304728 0.183970 0.586614,
        -0.302478 0.063339 0.586614,
        -0.302896 0.123670 0.586614,
        -0.302478 -0.327361 0.586614,
        -0.374496 -0.327361 0.586614,
        -0.374496 0.263191 0.586614,
        -0.273670 0.263191 0.586614,
        -0.098913 -0.140000 0.586614,
        -0.072581 -0.212131 0.586614,
        -0.084455 -0.175602 0.586614,
        -0.069880 -0.212131 0.586614,
        -0.041861 -0.138425 0.586614,
        -0.056158 -0.175169 0.586614,
        0.136835 0.263191 0.586614,
        0.230459 0.263191 0.586614,
        -0.849818 -0.303955 0.586614,
        -0.849818 -0.217533 0.586614,
        -0.692390 -0.269746 0.586614,
        -0.744156 -0.264117 0.586614,
        -0.804637 -0.244957 0.586614,
        -0.568946 -0.181636 0.586614,
        -0.571441 -0.204921 0.586614,
        -0.578242 -0.223348 0.586614,
        -0.587620 -0.236853 0.586614,
        -0.600513 -0.248211 0.586614,
        -0.619961 -0.258509 0.586614,
        -0.650211 -0.266561 0.586614,
        -0.705443 -0.055604 0.586614,
        -0.700976 -0.057830 0.586614,
        -0.625181 -0.098200 0.586614,
        -0.616957 -0.103445 0.586614,
        -0.592650 -0.124071 0.586614,
        -0.578204 -0.143878 0.586614,
        -0.571514 -0.160680 0.586614,
        -0.849818 0.111952 0.586614,
        -0.849056 0.096456 0.586614,
        -0.841308 0.061831 0.586614,
        -0.826210 0.032141 0.586614,
        -0.804505 0.007181 0.586614,
        -0.761894 -0.024335 0.586614,
        -0.640964 0.270393 0.586614,
        -0.706248 0.264026 0.586614,
        -0.755856 0.247748 0.586614,
        -0.789064 0.228668 0.586614,
        -0.814423 0.206664 0.586614,
        -0.832985 0.181024 0.586614,
        -0.844526 0.152762 0.586614,
        -0.511331 0.254188 0.586614,
        -0.523262 0.258288 0.586614,
        -0.575403 0.267590 0.586614,
        -0.511331 0.167766 0.586614,
        -0.647266 0.205576 0.586614,
        -0.606463 0.203015 0.586614,
        -0.555980 0.190949 0.586614,
        -0.770597 0.119716 0.586614,
        -0.768745 0.137611 0.586614,
        -0.763524 0.152803 0.586614,
        -0.754915 0.166201 0.586614,
        -0.741458 0.179133 0.586614,
        -0.719960 0.191801 0.586614,
        -0.688608 0.201828 0.586614,
        -0.645128 -0.000127 0.586614,
        -0.700019 0.028960 0.586614,
        -0.733693 0.050369 0.586614,
        -0.751802 0.066250 0.586614,
        -0.761789 0.080898 0.586614,
        -0.768004 0.097182 0.586614,
        -0.489725 -0.175109 0.586614,
        -0.490957 -0.155960 0.586614,
        -0.498770 -0.125263 0.586614,
        -0.515123 -0.094465 0.586614,
        -0.540340 -0.065832 0.586614,
        -0.587173 -0.031238 0.586614,
        -0.701167 -0.334563 0.586614,
        -0.635661 -0.329372 0.586614,
        -0.582629 -0.314104 0.586614,
        -0.549056 -0.295744 0.586614,
        -0.524369 -0.274175 0.586614,
        -0.505299 -0.246470 0.586614,
        -0.494374 -0.216602 0.586614,
        -0.824406 -0.315227 0.586614,
        -0.777172 -0.326731 0.586614,
      ]
    }
    coordIndex [
      115, 116, 67, -1,
      67, 116, 68, -1,
      116, 117, 68, -1,
      68, 117, 61, -1,
      117, 118, 61, -1,
      61, 118, 62, -1,
      119, 37, 36, -1,
      119, 36, 120, -1,
      120, 36, 35, -1,
      120, 35, 121, -1,
      121, 35, 11, -1,
      121, 11, 122, -1,
      122, 11, 10, -1,
      122, 10, 123, -1,
      123, 10, 52, -1,
      123, 52, 124, -1,
      124, 52, 51, -1,
      124, 51, 125, -1,
      125, 51, 63, -1,
      125, 63, 126, -1,
      126, 63, 62, -1,
      126, 62, 118, -1,
      115, 67, 66, -1,
      115, 66, 127, -1,
      127, 66, 9, -1,
      127, 9, 128, -1,
      128, 9, 8, -1,
      128, 8, 129, -1,
      129, 8, 65, -1,
      129, 65, 130, -1,
      130, 65, 64, -1,
      130, 64, 131, -1,
      131, 64, 1, -1,
      131, 1, 132, -1,
      132, 1, 0, -1,
      132, 0, 133, -1,
      133, 0, 5, -1,
      133, 5, 134, -1,
      134, 5, 37, -1,
      134, 37, 119, -1,
      116, 115, 135, -1,
      135, 115, 127, -1,
      135, 127, 136, -1,
      136, 127, 128, -1,
      136, 128, 137, -1,
      137, 128, 129, -1,
      137, 129, 138, -1,
      138, 129, 130, -1,
      138, 130, 139, -1,
      139, 130, 131, -1,
      139, 131, 140, -1,
      140, 131, 132, -1,
      140, 132, 141, -1,
      141, 132, 133, -1,
      141, 133, 142, -1,
      142, 133, 134, -1,
      142, 134, 143, -1,
      143, 134, 119, -1,
      143, 119, 144, -1,
      144, 119, 120, -1,
      144, 120, 145, -1,
      145, 120, 121, -1,
      145, 121, 146, -1,
      146, 121, 122, -1,
      146, 122, 147, -1,
      147, 122, 123, -1,
      147, 123, 148, -1,
      148, 123, 124, -1,
      148, 124, 149, -1,
      149, 124, 125, -1,
      149, 125, 150, -1,
      150, 125, 126, -1,
      150, 126, 151, -1,
      151, 126, 118, -1,
      151, 118, 152, -1,
      152, 118, 117, -1,
      152, 117, 153, -1,
      153, 117, 116, -1,
      153, 116, 135, -1,
      151, 152, 154, -1,
      154, 152, 155, -1,
      151, 154, 156, -1,
      151, 156, 150, -1,
      150, 156, 157, -1,
      150, 157, 149, -1,
      149, 157, 158, -1,
      149, 158, 148, -1,
      148, 158, 159, -1,
      148, 159, 147, -1,
      147, 159, 160, -1,
      147, 160, 146, -1,
      146, 160, 161, -1,
      146, 161, 145, -1,
      145, 161, 162, -1,
      145, 162, 144, -1,
      144, 162, 163, -1,
      144, 163, 143, -1,
      143, 163, 164, -1,
      143, 164, 142, -1,
      142, 164, 165, -1,
      142, 165, 141, -1,
      141, 165, 166, -1,
      141, 166, 140, -1,
      140, 166, 167, -1,
      140, 167, 139, -1,
      139, 167, 168, -1,
      139, 168, 138, -1,
      138, 168, 169, -1,
      138, 169, 137, -1,
      137, 169, 170, -1,
      137, 170, 136, -1,
      136, 170, 171, -1,
      136, 171, 135, -1,
      153, 135, 172, -1,
      172, 135, 171, -1,
      152, 153, 155, -1,
      155, 153, 172, -1,
      173, 174, 6, -1,
      6, 174, 7, -1,
      174, 175, 7, -1,
      7, 175, 49, -1,
      176, 33, 32, -1,
      176, 32, 177, -1,
      177, 32, 49, -1,
      177, 49, 175, -1,
      176, 178, 33, -1,
      33, 178, 34, -1,
      179, 48, 47, -1,
      179, 47, 180, -1,
      180, 47, 34, -1,
      180, 34, 178, -1,
      179, 181, 48, -1,
      48, 181, 50, -1,
      181, 182, 50, -1,
      50, 182, 31, -1,
      182, 183, 31, -1,
      31, 183, 30, -1,
      184, 26, 28, -1,
      184, 28, 185, -1,
      185, 28, 30, -1,
      185, 30, 183, -1,
      184, 186, 26, -1,
      26, 186, 27, -1,
      187, 84, 29, -1,
      187, 29, 188, -1,
      188, 29, 27, -1,
      188, 27, 186, -1,
      187, 189, 84, -1,
      84, 189, 83, -1,
      189, 190, 83, -1,
      83, 190, 3, -1,
      190, 191, 3, -1,
      3, 191, 4, -1,
      191, 192, 4, -1,
      4, 192, 39, -1,
      192, 193, 39, -1,
      39, 193, 41, -1,
      194, 45, 43, -1,
      194, 43, 195, -1,
      195, 43, 41, -1,
      195, 41, 193, -1,
      194, 196, 45, -1,
      45, 196, 44, -1,
      197, 40, 42, -1,
      197, 42, 198, -1,
      198, 42, 44, -1,
      198, 44, 196, -1,
      197, 199, 40, -1,
      40, 199, 38, -1,
      199, 200, 38, -1,
      38, 200, 46, -1,
      200, 173, 46, -1,
      46, 173, 6, -1,
      174, 173, 175, -1,
      175, 173, 200, -1,
      175, 200, 177, -1,
      177, 200, 176, -1,
      190, 189, 191, -1,
      191, 189, 187, -1,
      187, 188, 191, -1,
      191, 188, 186, -1,
      191, 186, 192, -1,
      192, 186, 184, -1,
      194, 182, 196, -1,
      196, 182, 181, -1,
      196, 181, 198, -1,
      198, 181, 197, -1,
      176, 200, 178, -1,
      178, 200, 199, -1,
      178, 199, 180, -1,
      194, 195, 182, -1,
      182, 195, 193, -1,
      182, 193, 183, -1,
      183, 193, 192, -1,
      183, 192, 185, -1,
      185, 192, 184, -1,
      197, 181, 199, -1,
      199, 181, 179, -1,
      199, 179, 180, -1,
      201, 202, 104, -1,
      104, 202, 20, -1,
      203, 90, 92, -1,
      203, 92, 204, -1,
      204, 92, 69, -1,
      204, 69, 205, -1,
      205, 69, 20, -1,
      205, 20, 202, -1,
      206, 112, 110, -1,
      206, 110, 207, -1,
      207, 110, 109, -1,
      207, 109, 208, -1,
      208, 109, 111, -1,
      208, 111, 209, -1,
      209, 111, 113, -1,
      209, 113, 210, -1,
      210, 113, 106, -1,
      210, 106, 211, -1,
      211, 106, 105, -1,
      211, 105, 212, -1,
      212, 105, 90, -1,
      212, 90, 203, -1,
      213, 70, 94, -1,
      213, 94, 214, -1,
      214, 94, 93, -1,
      214, 93, 215, -1,
      215, 93, 91, -1,
      215, 91, 216, -1,
      216, 91, 107, -1,
      216, 107, 217, -1,
      217, 107, 108, -1,
      217, 108, 218, -1,
      218, 108, 114, -1,
      218, 114, 219, -1,
      219, 114, 112, -1,
      219, 112, 206, -1,
      220, 23, 22, -1,
      220, 22, 221, -1,
      221, 22, 19, -1,
      221, 19, 222, -1,
      222, 19, 18, -1,
      222, 18, 223, -1,
      223, 18, 21, -1,
      223, 21, 224, -1,
      224, 21, 71, -1,
      224, 71, 225, -1,
      225, 71, 70, -1,
      225, 70, 213, -1,
      226, 72, 82, -1,
      226, 82, 227, -1,
      227, 82, 81, -1,
      227, 81, 228, -1,
      228, 81, 80, -1,
      228, 80, 229, -1,
      229, 80, 79, -1,
      229, 79, 230, -1,
      230, 79, 25, -1,
      230, 25, 231, -1,
      231, 25, 24, -1,
      231, 24, 232, -1,
      232, 24, 23, -1,
      232, 23, 220, -1,
      233, 75, 74, -1,
      233, 74, 234, -1,
      234, 74, 73, -1,
      234, 73, 235, -1,
      235, 73, 72, -1,
      235, 72, 226, -1,
      233, 236, 75, -1,
      75, 236, 2, -1,
      237, 57, 56, -1,
      237, 56, 238, -1,
      238, 56, 54, -1,
      238, 54, 239, -1,
      239, 54, 2, -1,
      239, 2, 236, -1,
      240, 87, 97, -1,
      240, 97, 241, -1,
      241, 97, 96, -1,
      241, 96, 242, -1,
      242, 96, 95, -1,
      242, 95, 243, -1,
      243, 95, 103, -1,
      243, 103, 244, -1,
      244, 103, 102, -1,
      244, 102, 245, -1,
      245, 102, 101, -1,
      245, 101, 246, -1,
      246, 101, 57, -1,
      246, 57, 237, -1,
      247, 53, 55, -1,
      247, 55, 248, -1,
      248, 55, 89, -1,
      248, 89, 249, -1,
      249, 89, 88, -1,
      249, 88, 250, -1,
      250, 88, 85, -1,
      250, 85, 251, -1,
      251, 85, 86, -1,
      251, 86, 252, -1,
      252, 86, 87, -1,
      252, 87, 240, -1,
      253, 17, 16, -1,
      253, 16, 254, -1,
      254, 16, 15, -1,
      254, 15, 255, -1,
      255, 15, 14, -1,
      255, 14, 256, -1,
      256, 14, 13, -1,
      256, 13, 257, -1,
      257, 13, 12, -1,
      257, 12, 258, -1,
      258, 12, 53, -1,
      258, 53, 247, -1,
      259, 98, 78, -1,
      259, 78, 260, -1,
      260, 78, 77, -1,
      260, 77, 261, -1,
      261, 77, 76, -1,
      261, 76, 262, -1,
      262, 76, 60, -1,
      262, 60, 263, -1,
      263, 60, 59, -1,
      263, 59, 264, -1,
      264, 59, 58, -1,
      264, 58, 265, -1,
      265, 58, 17, -1,
      265, 17, 253, -1,
      201, 104, 100, -1,
      201, 100, 266, -1,
      266, 100, 99, -1,
      266, 99, 267, -1,
      267, 99, 98, -1,
      267, 98, 259, -1,
      219, 255, 218, -1,
      218, 255, 256, -1,
      218, 256, 217, -1,
      217, 256, 257, -1,
      217, 257, 216, -1,
      216, 257, 258, -1,
      240, 221, 252, -1,
      252, 221, 222, -1,
      252, 222, 251, -1,
      251, 222, 223, -1,
      251, 223, 250, -1,
      250, 223, 224, -1,
      250, 224, 249, -1,
      249, 224, 225, -1,
      249, 225, 248, -1,
      248, 225, 213, -1,
      248, 213, 247, -1,
      247, 213, 214, -1,
      247, 214, 258, -1,
      258, 214, 215, -1,
      258, 215, 216, -1,
      202, 201, 205, -1,
      205, 201, 266, -1,
      205, 266, 204, -1,
      204, 266, 267, -1,
      204, 267, 203, -1,
      203, 267, 259, -1,
      203, 259, 212, -1,
      212, 259, 260, -1,
      212, 260, 211, -1,
      211, 260, 261, -1,
      211, 261, 210, -1,
      210, 261, 262, -1,
      210, 262, 209, -1,
      209, 262, 263, -1,
      209, 263, 208, -1,
      208, 263, 264, -1,
      208, 264, 207, -1,
      207, 264, 265, -1,
      207, 265, 206, -1,
      206, 265, 253, -1,
      206, 253, 219, -1,
      219, 253, 254, -1,
      219, 254, 255, -1,
      236, 233, 239, -1,
      239, 233, 234, -1,
      239, 234, 238, -1,
      238, 234, 235, -1,
      238, 235, 237, -1,
      237, 235, 226, -1,
      237, 226, 246, -1,
      246, 226, 227, -1,
      246, 227, 245, -1,
      245, 227, 228, -1,
      245, 228, 244, -1,
      244, 228, 229, -1,
      244, 229, 243, -1,
      243, 229, 230, -1,
      243, 230, 242, -1,
      242, 230, 231, -1,
      242, 231, 241, -1,
      241, 231, 232, -1,
      241, 232, 240, -1,
      240, 232, 220, -1,
      240, 220, 221, -1,
    ]
  }
}

Shape {
  appearance Appearance {
    material Material {
      diffuseColor 0.5647 0.5647 0.5647
      specularColor 0.2824 0.2824 0.2824
      ambientIntensity 0.2
      transparency 0.0000
      shininess 0.5
    }
  }
  geometry IndexedFaceSet {
    ccw TRUE
    solid FALSE
    coord DEF co Coordinate {
      point [
        0.555217 0.198374 0.590551,
        0.468120 0.198374 0.590551,
        0.581216 0.197420 0.590551,
        0.635670 0.188250 0.590551,
        0.682578 0.169426 0.590551,
        0.723763 0.140076 0.590551,
        0.748767 0.111202 0.590551,
        0.768563 0.073278 0.590551,
        0.781505 0.023374 0.590551,
        0.785001 -0.026346 0.590551,
        0.784016 -0.053163 0.590551,
        0.775209 -0.107588 0.590551,
        0.757983 -0.152693 0.590551,
        0.731459 -0.191674 0.590551,
        0.696655 -0.222861 0.590551,
        0.654477 -0.245224 0.590551,
        0.603773 -0.258615 0.590551,
        0.551954 -0.262544 0.590551,
        0.468120 -0.262544 0.590551,
      ]
    }
    coordIndex [
      1, 18, 0, -1,
      0, 18, 17, -1,
      0, 17, 2, -1,
      2, 17, 3, -1,
      9, 17, 10, -1,
      10, 17, 16, -1,
      10, 16, 11, -1,
      11, 16, 15, -1,
      9, 8, 17, -1,
      17, 8, 7, -1,
      17, 7, 6, -1,
      14, 13, 15, -1,
      15, 13, 12, -1,
      15, 12, 11, -1,
      6, 5, 17, -1,
      17, 5, 4, -1,
      17, 4, 3, -1,
    ]
  }
}

Shape {
  appearance Appearance {
    material Material {
      diffuseColor 0.2235 0.2235 0.2235
      specularColor 0.1137 0.1137 0.1137
      ambientIntensity 0.2
      transparency 0.0000
      shininess 0.5
    }
  }
  geometry IndexedFaceSet {
    ccw TRUE
    solid FALSE
    coord DEF co Coordinate {
      point [
        0.168531 -0.017905 -0.590551,
        0.187914 -0.020082 -0.590551,
        0.125959 -0.165696 -0.590551,
        0.122431 -0.163743 -0.590551,
        0.122431 -0.185348 -0.590551,
        0.219934 -0.188869 -0.590551,
        0.285673 -0.195550 -0.590551,
        0.200854 -0.195436 -0.590551,
        0.188172 -0.196751 -0.590551,
        0.202648 -0.025399 -0.590551,
        0.216273 -0.034514 -0.590551,
        0.228160 -0.047638 -0.590551,
        0.242462 -0.099226 -0.590551,
        0.240469 -0.120536 -0.590551,
        0.235121 -0.137468 -0.590551,
        0.191317 -0.174286 -0.590551,
        0.172957 -0.176346 -0.590551,
        0.205661 -0.169006 -0.590551,
        0.217742 -0.160863 -0.590551,
        0.226980 -0.151118 -0.590551,
        0.146827 -0.173445 -0.590551,
        0.144604 -0.021013 -0.590551,
        0.122431 -0.030508 -0.590551,
        0.122431 -0.004102 -0.590551,
        0.236276 -0.062837 -0.590551,
        0.241523 -0.083910 -0.590551,
        0.258480 -0.050548 -0.590551,
        0.246942 -0.032144 -0.590551,
        0.360092 0.001300 -0.590551,
        0.386499 0.001300 -0.590551,
        0.386499 -0.195550 -0.590551,
        0.235768 -0.178757 -0.590551,
        0.250554 -0.163191 -0.590551,
        0.285673 -0.173945 -0.590551,
        0.261041 -0.144473 -0.590551,
        0.360092 -0.173945 -0.590551,
        0.229170 -0.015052 -0.590551,
        0.210472 -0.004289 -0.590551,
        0.188527 0.002086 -0.590551,
        0.266965 -0.123637 -0.590551,
        0.268869 -0.100839 -0.590551,
        0.266037 -0.072853 -0.590551,
        0.168756 0.003700 -0.590551,
        0.145191 0.002074 -0.590551,
        0.143415 -0.193963 -0.590551,
        0.163306 -0.196751 -0.590551,
        0.171213 -0.197859 -0.590551,
        0.176595 -0.197951 -0.590551,
        -0.021606 -0.195550 -0.590551,
        0.084022 -0.195550 -0.590551,
        0.084022 0.001300 -0.590551,
        -0.016804 0.001300 -0.590551,
        -0.016804 -0.020306 -0.590551,
        0.057615 -0.020306 -0.590551,
        0.057615 -0.085122 -0.590551,
        -0.232859 -0.195550 -0.590551,
        -0.208626 -0.141598 -0.590551,
        -0.197337 -0.159205 -0.590551,
        -0.410505 -0.195550 -0.590551,
        -0.333685 0.001300 -0.590551,
        -0.307279 0.001300 -0.590551,
        -0.060015 0.001300 -0.590551,
        -0.012003 -0.085122 -0.590551,
        -0.012003 -0.106728 -0.590551,
        -0.181135 -0.174719 -0.590551,
        -0.160581 -0.186664 -0.590551,
        -0.137898 -0.193424 -0.590551,
        0.057615 -0.106728 -0.590551,
        0.057615 -0.173945 -0.590551,
        -0.021606 -0.173945 -0.590551,
        -0.060015 -0.195550 -0.590551,
        -0.113542 -0.195550 -0.590551,
        -0.115567 0.001300 -0.590551,
        -0.144007 -0.001740 -0.590551,
        -0.202590 -0.039803 -0.590551,
        -0.211738 -0.056732 -0.590551,
        -0.217025 -0.076127 -0.590551,
        -0.218456 -0.094650 -0.590551,
        -0.215694 -0.120994 -0.590551,
        -0.167038 -0.009828 -0.590551,
        -0.188464 -0.024186 -0.590551,
        -0.188670 -0.024367 -0.590551,
        -0.361780 -0.140337 -0.590551,
        -0.280459 -0.140337 -0.590551,
        -0.381698 -0.195550 -0.590551,
        -0.261667 -0.195550 -0.590551,
        -0.333685 0.001300 -0.586614,
        -0.410505 -0.195550 -0.586614,
        -0.381698 -0.195550 -0.586614,
        -0.361780 -0.140337 -0.586614,
        -0.280459 -0.140337 -0.586614,
        -0.261667 -0.195550 -0.586614,
        -0.232859 -0.195550 -0.586614,
        -0.307279 0.001300 -0.586614,
        -0.287098 -0.118731 -0.586614,
        -0.352928 -0.118731 -0.586614,
        -0.316469 -0.036510 -0.586614,
        -0.318363 -0.029683 -0.586614,
        -0.319619 -0.022706 -0.586614,
        -0.320257 -0.022706 -0.586614,
        -0.321541 -0.029662 -0.586614,
        -0.323295 -0.036510 -0.586614,
        -0.287098 -0.118731 -0.590551,
        -0.352928 -0.118731 -0.590551,
        -0.316469 -0.036510 -0.590551,
        -0.318363 -0.029683 -0.590551,
        -0.319619 -0.022706 -0.590551,
        -0.320257 -0.022706 -0.590551,
        -0.321541 -0.029662 -0.590551,
        -0.323295 -0.036510 -0.590551,
        -0.113542 -0.195550 -0.586614,
        -0.060015 -0.195550 -0.586614,
        -0.060015 0.001300 -0.586614,
        -0.115567 0.001300 -0.586614,
        -0.218456 -0.094650 -0.586614,
        -0.217025 -0.076127 -0.586614,
        -0.211738 -0.056732 -0.586614,
        -0.202590 -0.039803 -0.586614,
        -0.188670 -0.024367 -0.586614,
        -0.188464 -0.024186 -0.586614,
        -0.167038 -0.009828 -0.586614,
        -0.144007 -0.001740 -0.586614,
        -0.137898 -0.193424 -0.586614,
        -0.160581 -0.186664 -0.586614,
        -0.181135 -0.174719 -0.586614,
        -0.197337 -0.159205 -0.586614,
        -0.208626 -0.141598 -0.586614,
        -0.215694 -0.120994 -0.586614,
        -0.178943 -0.047910 -0.586614,
        -0.169381 -0.037758 -0.586614,
        -0.155002 -0.028469 -0.586614,
        -0.138754 -0.022782 -0.586614,
        -0.115455 -0.020306 -0.586614,
        -0.086422 -0.020306 -0.586614,
        -0.086422 -0.173945 -0.586614,
        -0.114367 -0.173945 -0.586614,
        -0.135135 -0.172012 -0.586614,
        -0.151700 -0.166841 -0.586614,
        -0.165125 -0.158869 -0.586614,
        -0.176166 -0.147964 -0.586614,
        -0.184468 -0.134392 -0.586614,
        -0.190242 -0.115888 -0.586614,
        -0.192049 -0.095212 -0.586614,
        -0.190377 -0.075621 -0.586614,
        -0.185781 -0.060051 -0.586614,
        -0.115455 -0.020306 -0.590551,
        -0.086422 -0.020306 -0.590551,
        -0.138754 -0.022782 -0.590551,
        -0.155002 -0.028469 -0.590551,
        -0.169381 -0.037758 -0.590551,
        -0.178943 -0.047910 -0.590551,
        -0.185781 -0.060051 -0.590551,
        -0.190377 -0.075621 -0.590551,
        -0.192049 -0.095212 -0.590551,
        -0.190242 -0.115888 -0.590551,
        -0.184468 -0.134392 -0.590551,
        -0.176166 -0.147964 -0.590551,
        -0.165125 -0.158869 -0.590551,
        -0.151700 -0.166841 -0.590551,
        -0.135135 -0.172012 -0.590551,
        -0.114367 -0.173945 -0.590551,
        -0.086422 -0.173945 -0.590551,
        -0.021606 -0.173945 -0.586614,
        -0.021606 -0.195550 -0.586614,
        0.084022 -0.195550 -0.586614,
        0.084022 0.001300 -0.586614,
        -0.016804 0.001300 -0.586614,
        -0.016804 -0.020306 -0.586614,
        0.057615 -0.020306 -0.586614,
        0.057615 -0.085122 -0.586614,
        -0.012003 -0.085122 -0.586614,
        -0.012003 -0.106728 -0.586614,
        0.057615 -0.106728 -0.586614,
        0.057615 -0.173945 -0.586614,
        0.122431 -0.163743 -0.586614,
        0.122431 -0.185348 -0.586614,
        0.143415 -0.193963 -0.586614,
        0.176595 -0.197951 -0.586614,
        0.171213 -0.197859 -0.586614,
        0.268869 -0.100839 -0.586614,
        0.266965 -0.123637 -0.586614,
        0.261041 -0.144473 -0.586614,
        0.250554 -0.163191 -0.586614,
        0.235768 -0.178757 -0.586614,
        0.219934 -0.188869 -0.586614,
        0.200854 -0.195436 -0.586614,
        0.168756 0.003700 -0.586614,
        0.188527 0.002086 -0.586614,
        0.210472 -0.004289 -0.586614,
        0.229170 -0.015052 -0.586614,
        0.246942 -0.032144 -0.586614,
        0.258480 -0.050548 -0.586614,
        0.266037 -0.072853 -0.586614,
        0.122431 -0.004102 -0.586614,
        0.145191 0.002074 -0.586614,
        0.122431 -0.030508 -0.586614,
        0.168531 -0.017905 -0.586614,
        0.144604 -0.021013 -0.586614,
        0.242462 -0.099226 -0.586614,
        0.241523 -0.083910 -0.586614,
        0.236276 -0.062837 -0.586614,
        0.228160 -0.047638 -0.586614,
        0.216273 -0.034514 -0.586614,
        0.202648 -0.025399 -0.586614,
        0.187914 -0.020082 -0.586614,
        0.172957 -0.176346 -0.586614,
        0.191317 -0.174286 -0.586614,
        0.205661 -0.169006 -0.586614,
        0.217742 -0.160863 -0.586614,
        0.226980 -0.151118 -0.586614,
        0.235121 -0.137468 -0.586614,
        0.240469 -0.120536 -0.586614,
        0.125959 -0.165696 -0.586614,
        0.146827 -0.173445 -0.586614,
        0.285673 -0.173945 -0.586614,
        0.285673 -0.195550 -0.586614,
        0.386499 -0.195550 -0.586614,
        0.386499 0.001300 -0.586614,
        0.360092 0.001300 -0.586614,
        0.360092 -0.173945 -0.586614,
      ]
    }
    coordIndex [
      86, 87, 59, -1,
      59, 87, 58, -1,
      87, 88, 58, -1,
      58, 88, 84, -1,
      88, 89, 84, -1,
      84, 89, 82, -1,
      89, 90, 82, -1,
      82, 90, 83, -1,
      90, 91, 83, -1,
      83, 91, 85, -1,
      91, 92, 85, -1,
      85, 92, 55, -1,
      92, 93, 55, -1,
      55, 93, 60, -1,
      93, 86, 60, -1,
      60, 86, 59, -1,
      94, 90, 95, -1,
      95, 90, 89, -1,
      96, 93, 94, -1,
      94, 93, 92, -1,
      94, 92, 90, -1,
      90, 92, 91, -1,
      96, 97, 93, -1,
      93, 97, 98, -1,
      93, 98, 86, -1,
      86, 98, 99, -1,
      86, 99, 100, -1,
      100, 101, 86, -1,
      86, 101, 95, -1,
      86, 95, 87, -1,
      87, 95, 89, -1,
      87, 89, 88, -1,
      94, 95, 102, -1,
      102, 95, 103, -1,
      96, 94, 104, -1,
      104, 94, 102, -1,
      96, 104, 105, -1,
      96, 105, 97, -1,
      97, 105, 106, -1,
      97, 106, 98, -1,
      99, 98, 107, -1,
      107, 98, 106, -1,
      99, 107, 108, -1,
      99, 108, 100, -1,
      100, 108, 109, -1,
      100, 109, 101, -1,
      95, 101, 103, -1,
      103, 101, 109, -1,
      110, 111, 71, -1,
      71, 111, 70, -1,
      111, 112, 70, -1,
      70, 112, 61, -1,
      112, 113, 61, -1,
      61, 113, 72, -1,
      114, 77, 76, -1,
      114, 76, 115, -1,
      115, 76, 75, -1,
      115, 75, 116, -1,
      116, 75, 74, -1,
      116, 74, 117, -1,
      117, 74, 81, -1,
      117, 81, 118, -1,
      118, 81, 80, -1,
      118, 80, 119, -1,
      119, 80, 79, -1,
      119, 79, 120, -1,
      120, 79, 73, -1,
      120, 73, 121, -1,
      121, 73, 72, -1,
      121, 72, 113, -1,
      110, 71, 66, -1,
      110, 66, 122, -1,
      122, 66, 65, -1,
      122, 65, 123, -1,
      123, 65, 64, -1,
      123, 64, 124, -1,
      124, 64, 57, -1,
      124, 57, 125, -1,
      125, 57, 56, -1,
      125, 56, 126, -1,
      126, 56, 78, -1,
      126, 78, 127, -1,
      127, 78, 77, -1,
      127, 77, 114, -1,
      116, 117, 128, -1,
      128, 117, 118, -1,
      128, 118, 129, -1,
      129, 118, 119, -1,
      129, 119, 130, -1,
      130, 119, 120, -1,
      130, 120, 131, -1,
      131, 120, 121, -1,
      131, 121, 132, -1,
      132, 121, 113, -1,
      132, 113, 133, -1,
      133, 113, 112, -1,
      133, 112, 134, -1,
      134, 112, 111, -1,
      134, 111, 135, -1,
      135, 111, 110, -1,
      135, 110, 136, -1,
      136, 110, 122, -1,
      136, 122, 137, -1,
      137, 122, 123, -1,
      137, 123, 138, -1,
      138, 123, 124, -1,
      138, 124, 139, -1,
      139, 124, 125, -1,
      139, 125, 140, -1,
      140, 125, 126, -1,
      140, 126, 141, -1,
      141, 126, 127, -1,
      141, 127, 142, -1,
      142, 127, 114, -1,
      142, 114, 143, -1,
      143, 114, 115, -1,
      143, 115, 144, -1,
      144, 115, 116, -1,
      144, 116, 128, -1,
      132, 133, 145, -1,
      145, 133, 146, -1,
      132, 145, 147, -1,
      132, 147, 131, -1,
      131, 147, 148, -1,
      131, 148, 130, -1,
      130, 148, 149, -1,
      130, 149, 129, -1,
      129, 149, 150, -1,
      129, 150, 128, -1,
      128, 150, 151, -1,
      128, 151, 144, -1,
      144, 151, 152, -1,
      144, 152, 143, -1,
      143, 152, 153, -1,
      143, 153, 142, -1,
      142, 153, 154, -1,
      142, 154, 141, -1,
      141, 154, 155, -1,
      141, 155, 140, -1,
      140, 155, 156, -1,
      140, 156, 139, -1,
      139, 156, 157, -1,
      139, 157, 138, -1,
      138, 157, 158, -1,
      138, 158, 137, -1,
      137, 158, 159, -1,
      137, 159, 136, -1,
      136, 159, 160, -1,
      136, 160, 135, -1,
      134, 135, 161, -1,
      161, 135, 160, -1,
      133, 134, 146, -1,
      146, 134, 161, -1,
      162, 163, 69, -1,
      69, 163, 48, -1,
      163, 164, 48, -1,
      48, 164, 49, -1,
      164, 165, 49, -1,
      49, 165, 50, -1,
      165, 166, 50, -1,
      50, 166, 51, -1,
      166, 167, 51, -1,
      51, 167, 52, -1,
      167, 168, 52, -1,
      52, 168, 53, -1,
      168, 169, 53, -1,
      53, 169, 54, -1,
      169, 170, 54, -1,
      54, 170, 62, -1,
      170, 171, 62, -1,
      62, 171, 63, -1,
      171, 172, 63, -1,
      63, 172, 67, -1,
      172, 173, 67, -1,
      67, 173, 68, -1,
      173, 162, 68, -1,
      68, 162, 69, -1,
      164, 163, 162, -1,
      162, 173, 164, -1,
      164, 173, 172, -1,
      164, 172, 165, -1,
      167, 166, 168, -1,
      168, 166, 165, -1,
      168, 165, 169, -1,
      169, 165, 172, -1,
      169, 172, 170, -1,
      170, 172, 171, -1,
      174, 175, 3, -1,
      3, 175, 4, -1,
      4, 175, 176, -1,
      177, 47, 46, -1,
      177, 46, 178, -1,
      178, 46, 45, -1,
      178, 45, 176, -1,
      176, 45, 44, -1,
      176, 44, 4, -1,
      179, 40, 39, -1,
      179, 39, 180, -1,
      180, 39, 34, -1,
      180, 34, 181, -1,
      181, 34, 32, -1,
      181, 32, 182, -1,
      182, 32, 31, -1,
      182, 31, 183, -1,
      183, 31, 5, -1,
      183, 5, 184, -1,
      184, 5, 7, -1,
      184, 7, 185, -1,
      185, 7, 177, -1,
      177, 7, 8, -1,
      177, 8, 47, -1,
      186, 42, 38, -1,
      186, 38, 187, -1,
      187, 38, 37, -1,
      187, 37, 188, -1,
      188, 37, 36, -1,
      188, 36, 189, -1,
      189, 36, 27, -1,
      189, 27, 190, -1,
      190, 27, 26, -1,
      190, 26, 191, -1,
      191, 26, 41, -1,
      191, 41, 192, -1,
      192, 41, 40, -1,
      192, 40, 179, -1,
      193, 23, 43, -1,
      193, 43, 194, -1,
      194, 43, 42, -1,
      194, 42, 186, -1,
      193, 195, 23, -1,
      23, 195, 22, -1,
      196, 0, 21, -1,
      196, 21, 197, -1,
      197, 21, 22, -1,
      197, 22, 195, -1,
      198, 12, 25, -1,
      198, 25, 199, -1,
      199, 25, 24, -1,
      199, 24, 200, -1,
      200, 24, 11, -1,
      200, 11, 201, -1,
      201, 11, 10, -1,
      201, 10, 202, -1,
      202, 10, 9, -1,
      202, 9, 203, -1,
      203, 9, 1, -1,
      203, 1, 204, -1,
      204, 1, 0, -1,
      204, 0, 196, -1,
      205, 16, 15, -1,
      205, 15, 206, -1,
      206, 15, 17, -1,
      206, 17, 207, -1,
      207, 17, 18, -1,
      207, 18, 208, -1,
      208, 18, 19, -1,
      208, 19, 209, -1,
      209, 19, 14, -1,
      209, 14, 210, -1,
      210, 14, 13, -1,
      210, 13, 211, -1,
      211, 13, 12, -1,
      211, 12, 198, -1,
      174, 3, 2, -1,
      174, 2, 212, -1,
      212, 2, 20, -1,
      212, 20, 213, -1,
      213, 20, 16, -1,
      213, 16, 205, -1,
      206, 177, 205, -1,
      205, 177, 178, -1,
      205, 178, 213, -1,
      213, 178, 176, -1,
      213, 176, 212, -1,
      212, 176, 175, -1,
      212, 175, 174, -1,
      195, 193, 197, -1,
      197, 193, 194, -1,
      197, 194, 196, -1,
      196, 194, 186, -1,
      196, 186, 204, -1,
      204, 186, 187, -1,
      204, 187, 203, -1,
      203, 187, 188, -1,
      203, 188, 202, -1,
      202, 188, 189, -1,
      202, 189, 201, -1,
      201, 189, 190, -1,
      201, 190, 200, -1,
      200, 190, 191, -1,
      200, 191, 199, -1,
      199, 191, 192, -1,
      199, 192, 198, -1,
      198, 192, 179, -1,
      198, 179, 211, -1,
      211, 179, 180, -1,
      211, 180, 210, -1,
      210, 180, 181, -1,
      210, 181, 209, -1,
      209, 181, 182, -1,
      209, 182, 208, -1,
      208, 182, 183, -1,
      208, 183, 207, -1,
      207, 183, 184, -1,
      207, 184, 206, -1,
      206, 184, 185, -1,
      206, 185, 177, -1,
      214, 215, 33, -1,
      33, 215, 6, -1,
      215, 216, 6, -1,
      6, 216, 30, -1,
      216, 217, 30, -1,
      30, 217, 29, -1,
      217, 218, 29, -1,
      29, 218, 28, -1,
      218, 219, 28, -1,
      28, 219, 35, -1,
      219, 214, 35, -1,
      35, 214, 33, -1,
      218, 217, 219, -1,
      219, 217, 216, -1,
      219, 216, 214, -1,
      214, 216, 215, -1,
    ]
  }
}

Shape {
  appearance Appearance {
    material Material {
      diffuseColor 0.5647 0.5647 0.5647
      specularColor 0.2824 0.2824 0.2824
      ambientIntensity 0.2
      transparency 0.0000
      shininess 0.5
    }
  }
  geometry IndexedFaceSet {
    ccw TRUE
    solid FALSE
    coord DEF co Coordinate {
      point [
        -0.287098 -0.118731 -0.590551,
        -0.352928 -0.118731 -0.590551,
        -0.316469 -0.036510 -0.590551,
        -0.318363 -0.029683 -0.590551,
        -0.319619 -0.022706 -0.590551,
        -0.320257 -0.022706 -0.590551,
        -0.321541 -0.029662 -0.590551,
        -0.323295 -0.036510 -0.590551,
        -0.115455 -0.020306 -0.590551,
        -0.086422 -0.020306 -0.590551,
        -0.138754 -0.022782 -0.590551,
        -0.155002 -0.028469 -0.590551,
        -0.169381 -0.037758 -0.590551,
        -0.178943 -0.047910 -0.590551,
        -0.185781 -0.060051 -0.590551,
        -0.190377 -0.075621 -0.590551,
        -0.192049 -0.095212 -0.590551,
        -0.190242 -0.115888 -0.590551,
        -0.184468 -0.134392 -0.590551,
        -0.176166 -0.147964 -0.590551,
        -0.165125 -0.158869 -0.590551,
        -0.151700 -0.166841 -0.590551,
        -0.135135 -0.172012 -0.590551,
        -0.114367 -0.173945 -0.590551,
        -0.086422 -0.173945 -0.590551,
      ]
    }
    coordIndex [
      0, 1, 2, -1,
      2, 1, 7, -1,
      2, 7, 3, -1,
      3, 7, 6, -1,
      3, 6, 4, -1,
      4, 6, 5, -1,
      9, 24, 8, -1,
      8, 24, 23, -1,
      8, 23, 22, -1,
      16, 15, 8, -1,
      8, 15, 14, -1,
      8, 14, 10, -1,
      22, 21, 8, -1,
      8, 21, 20, -1,
      8, 20, 19, -1,
      19, 18, 8, -1,
      8, 18, 17, -1,
      8, 17, 16, -1,
      13, 12, 14, -1,
      14, 12, 11, -1,
      14, 11, 10, -1,
    ]
  }
}
